<?xml version="1.0" encoding="UTF-8"?>
<svg width="1254" height="1254" viewBox="0 0 1254 1254"
     xmlns="http://www.w3.org/2000/svg" role="img" aria-label="Logo CIVIUM noir et blanc">
  <rect width="100%" height="100%" fill="#ffffff"/>
  <path d="
    M 325.0 736.0 L 328.0 749.0 L 338.0 773.0 L 362.0 817.0 L 378.0 840.0 L 395.0 861.0 L 423.0 890.0 L 445.0 909.0 L 465.0 924.0 L 504.0 948.0 L 526.0 959.0 L 553.0 970.0 L 598.0 983.0 L 641.0 990.0 L 687.0 992.0 L 688.0 991.0 L 708.0 991.0 L 742.0 987.0 L 785.0 977.0 L 827.0 962.0 L 874.0 938.0 L 912.0 912.0 L 947.0 881.0 L 947.0 879.0 L 847.0 773.0 L 844.0 773.0 L 824.0 792.0 L 800.0 810.0 L 783.0 820.0 L 752.0 834.0 L 729.0 841.0 L 700.0 846.0 L 686.0 846.0 L 685.0 847.0 L 654.0 846.0 L 629.0 842.0 L 598.0 833.0 L 577.0 824.0 L 544.0 804.0 L 529.0 792.0 L 504.0 767.0 L 484.0 740.0 L 473.0 720.0 L 349.0 720.0 L 340.0 730.0 Z
    M 314.0 679.0 L 310.0 681.0 L 304.0 687.0 L 301.0 694.0 L 302.0 705.0 L 307.0 712.0 L 314.0 716.0 L 328.0 715.0 L 336.0 708.0 L 338.0 704.0 L 337.0 689.0 L 328.0 680.0 L 321.0 678.0 Z
    M 606.0 630.0 L 561.0 630.0 L 555.0 632.0 L 546.0 637.0 L 496.0 687.0 L 482.0 694.0 L 347.0 694.0 L 347.0 700.0 L 481.0 700.0 L 486.0 699.0 L 501.0 691.0 L 540.0 651.0 L 554.0 639.0 L 562.0 636.0 L 608.0 636.0 Z
    M 343.0 610.0 L 343.0 616.0 L 603.0 616.0 L 603.0 610.0 Z
    M 310.0 594.0 L 305.0 596.0 L 299.0 602.0 L 297.0 606.0 L 297.0 618.0 L 300.0 624.0 L 304.0 628.0 L 310.0 631.0 L 320.0 631.0 L 326.0 628.0 L 331.0 623.0 L 334.0 616.0 L 334.0 609.0 L 331.0 602.0 L 325.0 596.0 L 321.0 594.0 Z
    M 909.0 608.0 L 906.0 601.0 L 902.0 597.0 L 896.0 594.0 L 889.0 593.0 L 880.0 596.0 L 873.0 604.0 L 871.0 610.0 L 734.0 610.0 L 734.0 616.0 L 871.0 616.0 L 874.0 623.0 L 879.0 628.0 L 885.0 631.0 L 895.0 631.0 L 903.0 627.0 L 907.0 622.0 L 909.0 617.0 Z
    M 666.0 561.0 L 656.0 563.0 L 646.0 567.0 L 640.0 571.0 L 630.0 581.0 L 621.0 599.0 L 620.0 621.0 L 625.0 635.0 L 637.0 650.0 L 650.0 658.0 L 660.0 661.0 L 673.0 662.0 L 684.0 660.0 L 695.0 655.0 L 708.0 644.0 L 716.0 631.0 L 719.0 622.0 L 720.0 608.0 L 718.0 598.0 L 713.0 586.0 L 701.0 572.0 L 684.0 563.0 Z
    M 344.0 525.0 L 344.0 531.0 L 478.0 531.0 L 483.0 532.0 L 495.0 538.0 L 544.0 587.0 L 555.0 594.0 L 566.0 597.0 L 605.0 597.0 L 607.0 590.0 L 603.0 591.0 L 563.0 590.0 L 553.0 586.0 L 499.0 533.0 L 485.0 526.0 L 481.0 525.0 Z
    M 312.0 510.0 L 305.0 513.0 L 301.0 517.0 L 298.0 523.0 L 297.0 530.0 L 300.0 539.0 L 306.0 545.0 L 317.0 548.0 L 322.0 547.0 L 330.0 542.0 L 335.0 532.0 L 335.0 526.0 L 332.0 518.0 L 327.0 513.0 L 320.0 510.0 Z
    M 950.0 343.0 L 916.0 312.0 L 882.0 288.0 L 842.0 266.0 L 816.0 255.0 L 789.0 246.0 L 746.0 236.0 L 701.0 231.0 L 647.0 232.0 L 622.0 235.0 L 596.0 240.0 L 573.0 246.0 L 540.0 257.0 L 499.0 276.0 L 459.0 301.0 L 421.0 332.0 L 404.0 349.0 L 385.0 371.0 L 362.0 403.0 L 347.0 428.0 L 336.0 450.0 L 325.0 477.0 L 322.0 490.0 L 334.0 494.0 L 344.0 503.0 L 473.0 503.0 L 484.0 482.0 L 503.0 456.0 L 524.0 434.0 L 552.0 412.0 L 570.0 401.0 L 601.0 387.0 L 628.0 379.0 L 662.0 374.0 L 693.0 374.0 L 716.0 377.0 L 741.0 383.0 L 763.0 391.0 L 787.0 403.0 L 806.0 415.0 L 823.0 428.0 L 845.0 450.0 L 847.0 450.0 L 950.0 345.0 Z
  "
  fill="#000000"
  fill-rule="evenodd"/>
</svg>
